<?xml version="1.0" encoding="UTF-8" standalone="no"?>
<svg
   xmlns:dc="http://purl.org/dc/elements/1.1/"
   xmlns:cc="http://creativecommons.org/ns#"
   xmlns:rdf="http://www.w3.org/1999/02/22-rdf-syntax-ns#"
   xmlns:svg="http://www.w3.org/2000/svg"
   xmlns="http://www.w3.org/2000/svg"
   xmlns:sodipodi="http://sodipodi.sourceforge.net/DTD/sodipodi-0.dtd"
   xmlns:inkscape="http://www.inkscape.org/namespaces/inkscape"
   height="32"
   width="32"
   viewBox="0 0 640 640"
   version="1.1"
   id="svg4"
   sodipodi:docname="linkedin-icon.svg"
   inkscape:version="1.0.1 (3bc2e813f5, 2020-09-07)">
  <metadata
     id="metadata10">
    <rdf:RDF>
      <cc:Work
         rdf:about="">
        <dc:format>image/svg+xml</dc:format>
        <dc:type
           rdf:resource="http://purl.org/dc/dcmitype/StillImage" />
      </cc:Work>
    </rdf:RDF>
  </metadata>
  <defs
     id="defs8" />
  <sodipodi:namedview
     pagecolor="#ffffff"
     bordercolor="#666666"
     borderopacity="1"
     objecttolerance="10"
     gridtolerance="10"
     guidetolerance="10"
     inkscape:pageopacity="0"
     inkscape:pageshadow="2"
     inkscape:window-width="1920"
     inkscape:window-height="991"
     id="namedview6"
     showgrid="false"
     inkscape:zoom="26.1875"
     inkscape:cx="16"
     inkscape:cy="1.3813039"
     inkscape:window-x="-9"
     inkscape:window-y="-9"
     inkscape:window-maximized="1"
     inkscape:current-layer="svg4" />
  <!--!Font Awesome Free 7.1.0 by @fontawesome - https://fontawesome.com License - https://fontawesome.com/license/free Copyright 2025 Fonticons, Inc.-->
  <path
     fill="#ffffff"
     d="M 144.76642,604.41051 H 12.590591 V 205.88245 H 144.76642 Z M 78.607369,151.51954 c -42.256433,0 -76.5453163,-32.77764 -76.5453163,-72.350635 0,-19.053665 8.1098153,-37.174633 22.4798433,-50.632117 C 38.911937,15.079304 58.403959,7.4844866 78.607369,7.4844866 c 20.203409,0 39.695431,7.5948174 54.065461,21.0523014 14.37003,13.457484 22.47985,31.711694 22.47985,50.632117 0,39.572995 -34.28889,72.350635 -76.545311,72.350635 z M 639.32312,604.41051 H 507.43184 V 410.40955 c 0,-46.23512 -0.99594,-105.52799 -68.72004,-105.52799 -68.72005,0 -79.24859,50.23239 -79.24859,102.19694 V 604.41051 H 227.42967 V 205.88245 h 126.76927 v 54.3629 h 1.84962 c 17.64241,-31.31196 60.75251,-64.35609 125.06195,-64.35609 133.74088,0 158.35489,82.47706 158.35489,189.60396 v 218.91729 z"
     id="path2"
     style="stroke-width:1.37686" />
</svg>
