<?xml version="1.0" encoding="UTF-8" standalone="no"?>
<svg
   xmlns:dc="http://purl.org/dc/elements/1.1/"
   xmlns:cc="http://creativecommons.org/ns#"
   xmlns:rdf="http://www.w3.org/1999/02/22-rdf-syntax-ns#"
   xmlns:svg="http://www.w3.org/2000/svg"
   xmlns="http://www.w3.org/2000/svg"
   xmlns:sodipodi="http://sodipodi.sourceforge.net/DTD/sodipodi-0.dtd"
   xmlns:inkscape="http://www.inkscape.org/namespaces/inkscape"
   viewBox="0 0 940 940"
   version="1.1"
   id="svg4"
   sodipodi:docname="up-right.svg"
   inkscape:version="1.0.1 (3bc2e813f5, 2020-09-07)">
  <metadata
     id="metadata10">
    <rdf:RDF>
      <cc:Work
         rdf:about="">
        <dc:format>image/svg+xml</dc:format>
        <dc:type
           rdf:resource="http://purl.org/dc/dcmitype/StillImage" />
      </cc:Work>
    </rdf:RDF>
  </metadata>
  <defs
     id="defs8" />
  <sodipodi:namedview
     pagecolor="#ffffff"
     bordercolor="#666666"
     borderopacity="1"
     objecttolerance="10"
     gridtolerance="10"
     guidetolerance="10"
     inkscape:pageopacity="0"
     inkscape:pageshadow="2"
     inkscape:window-width="1920"
     inkscape:window-height="991"
     id="namedview6"
     showgrid="false"
     inkscape:zoom="1.1324324"
     inkscape:cx="370"
     inkscape:cy="193.38902"
     inkscape:window-x="-9"
     inkscape:window-y="-9"
     inkscape:window-maximized="1"
     inkscape:current-layer="svg4" />
  <!--!Font Awesome Free 7.1.0 by @fontawesome - https://fontawesome.com License - https://fontawesome.com/license/free Copyright 2025 Fonticons, Inc.-->
  <path
     fill="#ffffff"
     d="m 418.4201,58.903371 c 7.18176,-15.642602 23.9871,-25.810292 42.51605,-25.810292 h 229.81653 c 25.42347,0 45.96331,18.640766 45.96331,41.713609 V 283.37469 c 0,16.81581 -11.20356,32.06735 -28.4398,38.58509 -17.23624,6.51776 -36.91427,2.86781 -50.12873,-8.9945 L 575.84442,238.14151 355.50783,437.97574 c -17.95442,16.29439 -47.11239,16.29439 -65.0668,0 -17.95443,-16.29437 -17.95443,-42.75643 0,-59.05082 L 510.77761,179.09069 428.47457,104.26691 C 415.26012,92.274249 411.38196,74.415622 418.56373,58.773017 Z M 1.3031026,262.51789 c 0,-57.6169 51.4214454,-104.28399 114.9082574,-104.28399 h 114.90827 c 25.42345,0 45.96331,18.64076 45.96331,41.71359 0,23.07284 -20.53986,41.71361 -45.96331,41.71361 H 116.21136 c -12.6399,0 -22.981649,9.38555 -22.981649,20.85679 v 333.70884 c 0,11.47125 10.341749,20.8568 22.981649,20.8568 h 367.70645 c 12.63991,0 22.98166,-9.38555 22.98166,-20.8568 V 491.94272 c 0,-23.07284 20.53984,-41.71361 45.9633,-41.71361 25.42346,0 45.9633,18.64077 45.9633,41.71361 v 104.28401 c 0,57.61691 -51.42144,104.28401 -114.90826,104.28401 H 116.21136 c -63.486812,0 -114.9082574,-46.6671 -114.9082574,-104.28401 z"
     id="path2"
     style="stroke-width:1.36835" />
</svg>
